<svg xmlns="http://www.w3.org/2000/svg" viewBox="0 0 64 64" width="64" height="64" role="img"><title>Backtrail</title><path d="M8 34 C6 18 20 5 36 5.5 C52 6 60 16 59 30 C58 46 46 58 30 58 C15 58 9 48 8 34 Z" fill="none" stroke="#5DB8CA" stroke-width="5"/><path d="M19 32 C18 22.5 25.5 15.5 35.5 15.5 C45.5 15.5 50 22 49.2 30.2 C48.4 39.5 42 45 33 45 C24.5 45 19.5 40 19 32 Z" fill="none" stroke="#1D8FA5" stroke-width="5"/><circle cx="35.2" cy="29.8" r="5.2" fill="#0E2A47"/><path d="M31 35 C25 40 18 44.5 12.5 48.5" fill="none" stroke="#E8683A" stroke-width="5" stroke-linecap="round"/><polyline points="19.6,50.6 9.5,50.6 12.4,41.2" fill="none" stroke="#E8683A" stroke-width="5" stroke-linecap="round" stroke-linejoin="round"/></svg>
