<svg xmlns="http://www.w3.org/2000/svg" viewBox="0 0 60 40" width="60" height="40"><title>United States</title><rect y="0" width="60" height="3.08692" fill="#B22234"/><rect y="3.07692" width="60" height="3.08692" fill="#FFFFFF"/><rect y="6.15385" width="60" height="3.08692" fill="#B22234"/><rect y="9.23077" width="60" height="3.08692" fill="#FFFFFF"/><rect y="12.3077" width="60" height="3.08692" fill="#B22234"/><rect y="15.3846" width="60" height="3.08692" fill="#FFFFFF"/><rect y="18.4615" width="60" height="3.08692" fill="#B22234"/><rect y="21.5385" width="60" height="3.08692" fill="#FFFFFF"/><rect y="24.6154" width="60" height="3.08692" fill="#B22234"/><rect y="27.6923" width="60" height="3.08692" fill="#FFFFFF"/><rect y="30.7692" width="60" height="3.08692" fill="#B22234"/><rect y="33.8462" width="60" height="3.08692" fill="#FFFFFF"/><rect y="36.9231" width="60" height="3.08692" fill="#B22234"/><rect width="24" height="21.538" fill="#3C3B6E"/><circle cx="2.00" cy="2.15" r=".75" fill="#FFFFFF"/><circle cx="6.00" cy="2.15" r=".75" fill="#FFFFFF"/><circle cx="10.00" cy="2.15" r=".75" fill="#FFFFFF"/><circle cx="14.00" cy="2.15" r=".75" fill="#FFFFFF"/><circle cx="18.00" cy="2.15" r=".75" fill="#FFFFFF"/><circle cx="22.00" cy="2.15" r=".75" fill="#FFFFFF"/><circle cx="4.00" cy="4.31" r=".75" fill="#FFFFFF"/><circle cx="8.00" cy="4.31" r=".75" fill="#FFFFFF"/><circle cx="12.00" cy="4.31" r=".75" fill="#FFFFFF"/><circle cx="16.00" cy="4.31" r=".75" fill="#FFFFFF"/><circle cx="20.00" cy="4.31" r=".75" fill="#FFFFFF"/><circle cx="2.00" cy="6.46" r=".75" fill="#FFFFFF"/><circle cx="6.00" cy="6.46" r=".75" fill="#FFFFFF"/><circle cx="10.00" cy="6.46" r=".75" fill="#FFFFFF"/><circle cx="14.00" cy="6.46" r=".75" fill="#FFFFFF"/><circle cx="18.00" cy="6.46" r=".75" fill="#FFFFFF"/><circle cx="22.00" cy="6.46" r=".75" fill="#FFFFFF"/><circle cx="4.00" cy="8.62" r=".75" fill="#FFFFFF"/><circle cx="8.00" cy="8.62" r=".75" fill="#FFFFFF"/><circle cx="12.00" cy="8.62" r=".75" fill="#FFFFFF"/><circle cx="16.00" cy="8.62" r=".75" fill="#FFFFFF"/><circle cx="20.00" cy="8.62" r=".75" fill="#FFFFFF"/><circle cx="2.00" cy="10.77" r=".75" fill="#FFFFFF"/><circle cx="6.00" cy="10.77" r=".75" fill="#FFFFFF"/><circle cx="10.00" cy="10.77" r=".75" fill="#FFFFFF"/><circle cx="14.00" cy="10.77" r=".75" fill="#FFFFFF"/><circle cx="18.00" cy="10.77" r=".75" fill="#FFFFFF"/><circle cx="22.00" cy="10.77" r=".75" fill="#FFFFFF"/><circle cx="4.00" cy="12.92" r=".75" fill="#FFFFFF"/><circle cx="8.00" cy="12.92" r=".75" fill="#FFFFFF"/><circle cx="12.00" cy="12.92" r=".75" fill="#FFFFFF"/><circle cx="16.00" cy="12.92" r=".75" fill="#FFFFFF"/><circle cx="20.00" cy="12.92" r=".75" fill="#FFFFFF"/><circle cx="2.00" cy="15.08" r=".75" fill="#FFFFFF"/><circle cx="6.00" cy="15.08" r=".75" fill="#FFFFFF"/><circle cx="10.00" cy="15.08" r=".75" fill="#FFFFFF"/><circle cx="14.00" cy="15.08" r=".75" fill="#FFFFFF"/><circle cx="18.00" cy="15.08" r=".75" fill="#FFFFFF"/><circle cx="22.00" cy="15.08" r=".75" fill="#FFFFFF"/><circle cx="4.00" cy="17.23" r=".75" fill="#FFFFFF"/><circle cx="8.00" cy="17.23" r=".75" fill="#FFFFFF"/><circle cx="12.00" cy="17.23" r=".75" fill="#FFFFFF"/><circle cx="16.00" cy="17.23" r=".75" fill="#FFFFFF"/><circle cx="20.00" cy="17.23" r=".75" fill="#FFFFFF"/><circle cx="2.00" cy="19.38" r=".75" fill="#FFFFFF"/><circle cx="6.00" cy="19.38" r=".75" fill="#FFFFFF"/><circle cx="10.00" cy="19.38" r=".75" fill="#FFFFFF"/><circle cx="14.00" cy="19.38" r=".75" fill="#FFFFFF"/><circle cx="18.00" cy="19.38" r=".75" fill="#FFFFFF"/><circle cx="22.00" cy="19.38" r=".75" fill="#FFFFFF"/></svg>
